<?xml version="1.0" encoding="utf-8"?>
<!-- Generator: Adobe Illustrator 24.3.0, SVG Export Plug-In . SVG Version: 6.00 Build 0)  -->
<svg version="1.1" id="圖層_1" xmlns="http://www.w3.org/2000/svg" xmlns:xlink="http://www.w3.org/1999/xlink" x="0px" y="0px"
	 viewBox="0 0 415.3 62.4" style="enable-background:new 0 0 415.3 62.4;" xml:space="preserve">
<style type="text/css">
	.st0{fill:#FFFFFF;}
</style>
<path class="st0" d="M411.4,23.4c-3.7-0.1-7.9-0.1-11.8,0l-0.5-0.6v-0.7c4.2-3,6.3-7.5,9.9-11.1c0.8-5-6.3-4.4-10.7-4.9
	c-0.8-0.1-1.6-0.3-2.4-0.6c-1.5-1.8-0.5-4.9-1.9-5.5c-0.5-0.2-1.3,0-2.7,0.6c-0.5,1.5,0.9,3,0,4.2c-0.1,0.5-0.3,0.9-0.6,1.3
	c-1,1.4-3,1.2-5.2,0.7c-3-0.8-6.3-2.2-7.6-0.5c0,1.1,1.5,2.7,1.5,4.5c-0.7,5.3-0.9,10.7-0.6,16.1c-1,0.6-2.1,0.9-3.2,1.1
	c-1.2-0.6,1.1-5.7,1.1-6.5c-0.3-3.5-0.9-7.2-1-10.7c-0.6-0.9-1.3-1.7-2.2-2.3c-0.9-0.3-4.7-1.9-4.7,0.6c2.5,2.1,4.5,8.9,3.7,11.9
	c-0.6,2.3-2,4-2.3,6.1c0.4,0.9,1.4,1.1,2.1,1.7c0,1.4-5.3,2.5-5.3,1c-5.3-5.3-3.9,2.9-6,5.4c-0.6,1-1.3,2-2.2,2.8
	c-0.1,0.8-0.2,1.4-0.3,1.9v0.6c0.1,2.3,1.8,1,2.8,3.7c0.6,0.4,1.2,0.1,1.6,0.4c7.4,0,3.7-9.5,5.5-10c5,0,11.9-3.9,17-5.5
	c0.4-0.1,0.8-0.2,1.1-0.3c1.3,0,2.7-0.2,4-0.4c1.1-0.2,2.2-0.4,3.3-0.7c1.5-0.3,2.9-0.8,4.3-1.3c0.9-0.4,1.7-0.6,2.5-1
	c2.5,0,5.7-0.5,7.6,1.4c0,2.2-3.3,2.4-4.8,2.7c0,1.5,8.7,2.8,9.6,2c0.5-0.4,1.1-0.6,1.7-0.6C416.5,29.3,413.8,23.6,411.4,23.4z
	 M393.9,17.1c1,0,2,0.6,1,1.7c-0.3,0-0.7,0-1,0.1c-0.2,0-0.5,0.1-0.9,0.1C391.8,17.5,392.9,17,393.9,17.1L393.9,17.1z M390.6,12.4
	c0.1-0.1,0.2-0.1,0.3-0.1l0.8,0.4c0,1.5-0.3,2.2-1.1,2.4c-0.6,0.1-1.1,0.2-1.7,0.1C386.4,14.7,389.6,13,390.6,12.4z M384.9,10.8
	c0.2,0.1,0.4,0.2,0.6,0.3c0.3,0.2,0.7,0.5,1,0.8c-0.2,0.4-0.4,1-1,1.2c-0.2,0.1-0.5,0.1-0.7,0l-0.6-0.4
	C384.1,11.7,384.1,11.4,384.9,10.8L384.9,10.8z M385.5,17.7c0.4-0.1,0.9,0,1.3,0.2c0,1-0.1,1.8-1.3,1.9c-0.2,0.1-0.4,0.1-0.6,0.1
	C383.8,18.9,384.5,17.9,385.5,17.7L385.5,17.7z M395,23.7l-1,0.2l-3.3,0.6c-1.7,0.4-3.4,0.6-5.2,0.9h-0.4c-0.9-1.4-0.3-2.2,0.4-3
	c0.1-0.1,0.3-0.3,0.4-0.4c1.1,0.3,3.2,1.1,4.8,0.9c1.1,0,1.9-0.9,2-1.9c0.1-0.4,0.6-0.7,1-0.6c0.1,0,0.2,0.1,0.3,0.1
	c1.1,0.6,2.2,2.4,1,3.1L395,23.7z M398.3,9.7c1.9,0.1,4.2,0.3,5.2,1.4c0,0.6-2.3,4.5-3.1,4.5c-0.7-0.7-1.4-1.4-2.1-2.2
	c-1.2-1.5-2.5-3.2-2.4-3.7L398.3,9.7z M398.3,19c-0.6-0.2-1.8-0.6-1-1.4c0.3,0,0.7,0,1,0.1c0.4,0.1,0.7,0.3,1.2,0.4v0.6l-0.9,0.3
	C398.5,19.1,398.4,19.1,398.3,19L398.3,19z"/>
<path class="st0" d="M407.9,43.1c-1.2,0.3-7.7,0.2-8,0.9c-0.4,0.4-1,0.7-1.6,0.7c-1.8,0.1-2.9-2.2-4.3-3.7c-0.3-0.3-0.6-0.6-0.9-0.8
	c0-0.8,0.4-1.6,0.9-2.2c1.1-1.5,3-2.8,4.3-4.1c0.3-0.3,0.5-0.6,0.7-0.9c0.1-0.7-0.2-1.5-0.7-2c-1-0.8-2.7-0.4-4.3,0.1
	c-1.3,0.4-2.5,0.9-3.3,1c-0.1,0.1-0.2,0.1-0.3,0.1c-1.6,0.5-3.2,0.9-4.9,1.2c-3.7,0.9-7.6,1.4-11.1,2.2c-1,3.7,3.6,1.8,5,0.6
	c2-0.3,4-0.8,6-1.3c1.9-0.4,3.7-0.9,5.2-1.1c0.9-0.2,1.9-0.2,2.8,0v0.7c-0.9,0.8-1.8,1.5-2.8,2.2c-1.6,0.9-3,2.1-4.2,3.5
	c-0.3,0.3-0.6,0.6-1,0.8c-1.3,0.7-3.1,0.9-3.8,2.8c-0.1,0.6,0.2,1.4-0.1,1.9c-3.1,1.8-13.1-1.9-13.1,2.3c2.2,2.5,6.8,3,6.8,7.6
	c3,4.5,5.9,5.5,10.2,6.5c0.6,0.1,1.3,0.3,2,0.5c1.1,0,2.1-0.1,3.2-0.3c1.1-0.1,2.2-0.4,3.3-0.8c0.3-0.2,0.6-0.4,0.9-0.6
	c1.1-2.3,3.1-4.8,3.4-7.8v-1.3c-0.1-0.5-0.2-1-0.4-1.5c0-0.4,0.1-0.9,0.4-1.2c1.7-2.2,9.6,1.5,13.1-0.6h0.9c0.4-0.6,0-0.9,0.4-1.1
	C410.6,46.2,410.4,43.1,407.9,43.1z M389.4,44.2c0.4-0.2,0.9-0.3,1.3-0.2c0.7,0,1.4,0.3,1.4,0.9c-0.4,0.2-0.9,0.3-1.4,0.2
	c-0.2-0.1-0.5-0.1-0.7,0l-0.6-0.2V44.2z M394,53.6c-0.8,1.4-1.9,2.6-3.3,3.5c-1.3,1-2.8,1.6-4.5,1.7c0-0.2-0.4-0.3-0.7-0.4
	c-0.1,0-0.2,0-0.4-0.1c-2.5,0.7-8.7-4.7-8.7-6.8c2.9-1.4,5.9-2.3,9.1-2.7c1.7-0.3,3.4-0.4,5.2-0.5c0.9-0.1,1.9-0.1,2.8-0.1
	c0.2,0.2,0.4,0.4,0.5,0.6C394.8,50.4,394.8,52.2,394,53.6L394,53.6z"/>
<path class="st0" d="M342.3,48.8c0-2.2-1.9-3.6-3.7-4.6c-4.9-2.7-10.9-6.6-14.5-11.2c-1.4-1.5-5.3-3.3-6.2-5.3
	c0.4-1.5,3.2-1.6,4-2.4c2.3-0.7,4.3-2.1,5.9-3.8c-0.4-2.8-4.5-2.7-6.5-2.7c-1.1,0.6-3.5,1.3-4.6,0.8c-0.9-0.3,0.1-7,1.1-7.6
	c3.5-1.7-8.4-5-8.4-0.9c2.8,3.3-1,8.6,0,12.2c-2.2,3.5-9.1,1.9-11,4.4c0,0.9,2.4,4.3,3.2,4.7c8.4,0,1.8,5.4-0.3,8.6
	c-0.6,0.9-0.9,0.5-1.6,0.8c0,2.1-5.3,3.2-6.8,2.9c-2.5,1.7,0.6,2.5,0.6,4.1c0.5,0.1,1,0.8,1.3,1c4,0,8.3,0.8,11.5-1.9
	c1.9-3.2,5.2-5.7,6.5-8.9c0.4-1.2-0.3-3.8,1.8-3.8l0.7,0.6v0.4c1,0.6,1.8,1.4,2.6,2.2c0.8,3.6,5,5.7,5.8,9.2c1.2,1.1,5,4.6,7,3.2
	c3.7,0.4,7.4,1.3,10.9,2.7C343.2,53.4,344.4,49.2,342.3,48.8z"/>
<path class="st0" d="M259.7,27.4c-2.5,1.7-1.5,0-2.3,3c-0.7,1-4,1.5-5.6,1.7c-1.5-1.9,2.5-8.1,0.9-12c-1.5-1.2-11.4-6.2-13.4-4.2
	c0.6,1,0.4,2,0.4,3.2c0.1,0.9,0.9,1.5,0.9,2c1.8,4.3,0,8.9,0,13.6c-1.4,2.5-4.8,1.7-7.5,0.9c-2.1-1.4-4.8-8.6-7.5-8.1
	c-2.2,5.1-2.7,15.4,2.9,18.6c1,0.5,2,0.1,3.1,0.5c3,0,11.7-3,14.3-4.8c0.7-0.7,1.7-1.1,2.7-1.1c1.5-0.9,4.6-3.8,6.8-3.4
	c1.5,1.5-1.1,2.8-1.4,4c2.7,1.9,9.9,3.5,12,0c0.9-3.1,5.3-6.1,4.7-9.5C269,28.2,262.6,27.7,259.7,27.4z"/>
<path class="st0" d="M206.8,11.4l-0.8,0.3l-0.4,0.5l0.1,0.1l-0.4,0.4c-0.6-0.4-0.6-0.4-0.9-0.6l-0.2-0.9c-0.6,0.2-7.2-0.2-7.2,0.6
	c-0.9-0.1-1.9-0.1-2.8,0c-2.7,0.1-5.8,0.3-5.8-3l-0.2-0.1c0-1.4-1-2.3-1-3.9c-0.3-0.5-3.7-1.9-4.3-2.2c-2.1-2.1-3.5-0.6-2.8,2.1
	c-1,2.9-0.4,6.3-1.3,8.9c-3.2,2.7-3.5,3.5-8.1,3.9c-2.4,2.4-5.9,3.5-9.3,2.9c-0.7-0.9-1.5-1.7-2.4-2.4c-2.4,1.3-0.2,8.5-1.1,10.8
	c0,3-0.6,6.3,1.1,8.6c0.1,0.1,0.7,0.6,0.7,1c4.7,0,3-10.7,2.6-13.2c-0.6-1.4,0-2.1,0.9-3c5.4,1.5,12-5.6,14.5-3.7
	c0.4,3.3,0.9,6.4-0.4,9.4c-0.3,0.7-0.5,1.4-0.6,2.2c-2.5,1.1-7.8,2-8.9,4.5c0.6,0.5,1.4,0.8,2.2,1c1.4,0,5.1-1.2,6.3-0.8
	c2.8,1.8,1.9,15.8,0.1,18.4c-0.1,1.6-0.2,5.6,1.7,6.4c1.1-0.4,2.8-0.6,3.9-1.1c3,0,4.2-5,5-7c1.2-7.3-0.3-16.1,2.2-22.9
	c0.8-1.4,2.7-1.3,4.8-1c1.7,0.1,3.5,0.4,4.6-0.2c0-4.6,3.8-5.5,6.8-7.7C213.3,18.4,211.2,14.6,206.8,11.4z M194.8,19.4
	c-0.2,0.2-0.4,0.4-0.6,0.6c-0.9,1-1.7,2.1-3.3,2.6c-1.1,0-0.9-0.4-1.5-1c0.4-2.4-0.6-4.5-0.2-6.9c1.1-1.1,3.2-1,5-1
	c1.3,0,2.5-0.1,3.2-0.7c1.5,0,1.4,1.6,2.1,1.7C199.4,17.1,196.6,18.7,194.8,19.4z"/>
<path class="st0" d="M124.5,42c-6.8-0.5-6,1.3-6-5.3c0.8-2.3,2.4-5,2.3-7.8c-0.7-0.4-1-0.9-1.5-1.1c-1.6-0.4-2.6-0.2-4-0.5
	c-2.1,1.4-0.3,1.1,0,3.5c-0.3,4.2-1.8,8.3-4.5,11.5c-1.1,1.7-5.8,0.7-6.6-0.9c-0.6-1.1-1.1-13.5,0.4-14.2c2.4-1,5.3-1.8,7.1-3
	c2.6,0,5.1,0.2,7.3-0.9c0.6,0,0.6-0.5,1.2-0.5c3.4,0,6.7-0.2,10.1-0.5c0.4-0.7,0.6-1.4,0.6-2.2c-2.7-2.7-11.7,0.8-15.5-1
	c-1-2.5-1.6-5.2-1.7-7.9c-1.7-3.4-8.8-4.4-12.6-4.4c-2.6,2.6-0.6,1.8,0.6,4.8c0.6,0.6,1.4,0.6,2.1,1c1.4,2.4,4.2,5,1.8,7.4
	c-6,0.8-10.8,3.5-16.8,3.9c-1.6-0.5-6.3-4.2-4.8,1.1c1.3,1.3,2.5,5.7,3.4,6c4.2,1.7,8.4-1.3,12.2-1.4c0.5,0.5,1,0.7,1,1.3
	c0,1.7-1.7,11.4-2.7,12.5c-1.5,0.7-3.2,1-4.9,0.8c-4.3,1.7-6.8-2.2-10.4-0.6c-1.3,2.6,2.9,5.2,3.8,6.8c0.3,0.4,0.6,0.7,1,1.1
	c0,1.8,1.9,1,3.2,1.3c1.5,0,3,0,4.5-0.3c0.6-1.3,10.1-2.6,12.7-4.2c5.8-2.1,12.2-2.5,18.2-1.1c5.5,0,10.4,4.3,10.4-3.2
	C135,41.2,127,41.8,124.5,42z"/>
<path class="st0" d="M55.4,8.1c-1.3-2.7-6.3-5-9.1-5.8c-1.7-1.4-5.9-0.9-8.1-0.8c-1.3,0.1-2.5,0.1-3.8,0.1c-0.7,0.1-1.3,0.1-1.9,0.1
	S31.4,2,30.9,2C27.3,2.2,23.6,2.7,20,3.4c-2.4,0.4-4.8,0.9-7.1,1.5c-2.1,0.8-8.1-0.4-8.1,2.6C6,8,6.8,9.7,8.3,10.2
	c3.3,0.4,6-0.6,8.7-2.2c0.8,0,1.9-0.3,3-0.4s2.6-0.2,3.3,0.4c3.3,3.6,0.4,4.8-3.3,5.3s-7.7,0.4-8.3,1.3c1.9,3.2,4,3.7,7.1,3.2
	l0.1-0.2c0.4,0,0.7-0.1,1.1-0.1c2.2-0.4,4.4-1.1,6.6-0.9c0.5,0.2,0.5,0.6,0.9,0.8v1.1c-1.2,0.4-1.2,0-2,0c-1.7,1-3.6,1.8-5.5,2.2
	c-0.8,0.2-1.5,0.4-2.2,0.6c-2.5,0.6-4.2-1.9-5.3,1.6c0.1,1.4-1.4,13,3.3,10.4c0.9-1.7,2.4-2.5,4.2-3c2.4-0.6,5.3-0.9,6.8-3l0.5,0.4
	c-0.4,0.7-0.5,1.3-0.9,1.9c-2,1.8-4.1,3.3-6.4,4.7c-2.7,1.4-5.6,2.1-8.6,0.8c-3.1-2.5-0.5-18.6-3.5-19.3c-1.9-1.4-5.2-3.5-7.5-3
	c0,1.6,0.9,3.3,0.9,4.9c-1.4,5.5,0,11.2-1,16.4c-0.4,4.8-0.7,9.9,1.4,14c0.9,0.6,1.9,0.9,3,0.9c1.5,1.4,3,4.3,5.3,4.3
	c3.2,1.3,6.6,1.6,10,1.1l1.1-0.2c2.7-2.5,6.3-2.2,9.9-2.6c0.5,0,1-0.1,1.5-0.1c0.7-0.1,1.3-0.2,1.9-0.4c0.4-0.1,0.7-0.2,0.9-0.3
	c1.6-0.1,3.3,0.1,4.9,0.4c0.7,0,6,6.2,6,6.4c1,0.3,2.6,1.7,3.5,2.1c5,0,6.6-4.8,6.7-10.2v-2.1c-0.2-4-0.7-8-1.4-12
	C54.3,26.3,55.4,17.1,55.4,8.1z M20,25.7c-0.7,0.6-1.6,0.9-2.5,1c-1.3-0.9-0.6-1.6-0.5-3c0.9-0.5,2-0.8,3-0.8
	c0.9-0.1,1.6,0.1,1.9,0.8C21.4,24.5,20.8,25.2,20,25.7z M29.1,5c0.4-0.1,1.1-0.1,1.9-0.2c0.4,0,0.9-0.1,1.5-0.1s1.3-0.1,1.9-0.1
	c1.4-0.1,2.8,0,4.2,0.4c-0.6,0.9-2.7-0.1-3.8,1c-0.3,1.2,0.7,3.3-0.4,4.2c-0.5,0.3-1,0.5-1.6,0.4h-0.4c-0.5-0.1-1-0.2-1.5-0.4
	c-0.1-0.1-0.3-0.1-0.4-0.2C29.6,9.2,28.1,6,29.1,5L29.1,5z M26.6,47l-0.2,0.4c-2.1,0.4-4.2,0.9-6.4,1.3c-2.3,0.6-4.7,0.8-7.1,0.6
	c-1.9-0.5-3.9,0.3-5.7-1c0-1.5,2.8-4.1,4.2-4.4c3.1-0.1,6.2-1.2,8.6-3.1c4-2.8,7.6-6.9,10.9-10c0.2-0.2,0.4-0.4,0.7-0.6l0.4,0.3
	l0.4,0.3l0.4,0.2c0.1,0.8,0,1.6-0.4,2.3C32,34,31.5,34.5,30.9,35c-0.2,0.1-0.5,0.3-0.7,0.5c-1.9,3.4-5.5,6.4-9.5,7
	C17.9,46.7,25.8,45.2,26.6,47L26.6,47z M39.7,45.2c-1.9,0.3-3.6,0.4-5.3,0.6l-1.9,0.2c-0.5,0.1-1,0.2-1.5,0.3
	c-0.4,0.1-0.9,0.2-1.3,0.3L29,46.1c0-0.7,0.9-1.7,1.9-2.7c0.5-0.4,1-0.9,1.5-1.4c0.7-0.6,1.4-1.4,1.9-2.2c0.2-0.2,0.3-0.3,0.4-0.5
	c0.3-0.5,1.2-0.2,1.9-0.1C37.8,40.8,40.2,43.1,39.7,45.2L39.7,45.2z M46.8,40.6c-5.3-4.5-9.4-10.3-2.5-15.7c1.5-3.2,1.7-8.2-2.4-9.3
	c-3.3,0-0.8,7.2-5.5,7.2c-0.7-1-1.4-2.1-1.9-3.2c-0.7-1.5-1.4-3.2-1.9-4.5c-0.1-0.3-0.3-0.6-0.4-0.9c0.1-0.1,0.2-0.2,0.4-0.3
	c0.6-0.5,1.2-0.8,1.9-0.9c4.3-0.9,9.9,2.7,8.9-6l0.3-0.9C48.1,4.3,51.5,39.4,46.8,40.6z"/>
</svg>
