<svg id="圖層_1" data-name="圖層 1" xmlns="http://www.w3.org/2000/svg" viewBox="0 0 415.3 62.36"><title>國父墨寶 [轉換]</title><path d="M496.58,257c-3.74-.14-7.92-.14-11.81,0l-.5-.58v-.72c4.18-3,6.34-7.49,9.94-11.09.79-5-6.34-4.39-10.73-4.9a8.82,8.82,0,0,1-2.38-.58c-1.51-1.8-.5-4.9-1.94-5.47-.5-.22-1.3,0-2.74.65-.5,1.51.86,3,0,4.18a2.4,2.4,0,0,1-.58,1.3c-1,1.44-3,1.22-5.18.72-3-.79-6.26-2.16-7.63-.5,0,1.15,1.51,2.66,1.51,4.46a79.15,79.15,0,0,0-.58,16.06,8.62,8.62,0,0,1-3.24,1.08c-1.22-.65,1.08-5.69,1.15-6.48-.29-3.53-.86-7.2-1-10.66a9.37,9.37,0,0,0-2.16-2.3c-.94-.29-4.68-1.87-4.68.65,2.45,2.09,4.46,8.86,3.74,11.88-.65,2.3-2,4-2.3,6.12.36.86,1.44,1.08,2.09,1.73,0,1.37-5.26,2.45-5.26,1-5.33-5.26-3.89,2.88-6,5.4a14.5,14.5,0,0,1-2.16,2.81c-.14.79-.22,1.44-.29,1.94v.58c.14,2.3,1.8,1,2.81,3.74.58.36,1.22.14,1.58.36,7.42,0,3.74-9.5,5.47-10,5,0,11.88-3.89,17-5.47a8.93,8.93,0,0,1,1.15-.29,19.71,19.71,0,0,0,4-.43,24.66,24.66,0,0,0,3.31-.72,37.81,37.81,0,0,0,4.32-1.3c.86-.36,1.66-.65,2.45-1,2.45,0,5.69-.5,7.56,1.37,0,2.23-3.31,2.38-4.82,2.74,0,1.51,8.71,2.81,9.65,2a2.3,2.3,0,0,1,1.66-.58C501.7,262.9,499,257.14,496.58,257Zm-17.42-6.34c1,0,2,.65,1,1.66a5.49,5.49,0,0,0-1,.07c-.22,0-.5.07-.86.07C477,251.09,478.08,250.58,479.16,250.66ZM475.85,246c.14-.07.22-.07.29-.14l.79.36c0,1.51-.29,2.16-1.08,2.45a5.68,5.68,0,0,1-1.73.14C471.6,248.28,474.84,246.55,475.85,246Zm-5.76-1.66a2.14,2.14,0,0,1,.58.29,12.47,12.47,0,0,1,1,.79c-.22.36-.43,1-1,1.22a1.2,1.2,0,0,1-.72,0l-.65-.43C469.3,245.26,469.3,245,470.09,244.39Zm.58,6.91a1.64,1.64,0,0,1,1.3.22c0,1-.14,1.8-1.3,1.94a1.41,1.41,0,0,1-.58.07C469,252.46,469.73,251.45,470.66,251.3Zm9.5,6-1,.22-3.31.65c-1.66.36-3.38.65-5.18.94h-.36c-.94-1.44-.29-2.16.36-3a1.9,1.9,0,0,0,.36-.43c1.15.29,3.24,1.15,4.82.94a2.09,2.09,0,0,0,2-1.94.82.82,0,0,1,1.3-.43C480.24,254.83,481.39,256.63,480.17,257.35Zm3.31-14c1.94.07,4.18.29,5.18,1.37,0,.65-2.3,4.54-3.1,4.54a25.06,25.06,0,0,1-2.09-2.23c-1.22-1.51-2.52-3.24-2.38-3.67Zm0,9.29c-.65-.22-1.8-.58-1-1.37a2.45,2.45,0,0,1,1,.14c.36.07.72.29,1.22.43v.65l-.94.29A.55.55,0,0,1,483.48,252.6Z" transform="translate(-85.21 -233.58)" style="fill:#231815"/><path d="M493.06,276.65c-1.22.29-7.7.22-8,.86a2.55,2.55,0,0,1-1.58.72c-1.8.07-2.88-2.23-4.32-3.74a3.23,3.23,0,0,0-.94-.79,3.59,3.59,0,0,1,.94-2.23c1.15-1.51,3-2.81,4.32-4.1a7.6,7.6,0,0,0,.72-.86,2.5,2.5,0,0,0-.72-2c-1-.79-2.66-.43-4.32.07-1.3.36-2.52.86-3.31,1a.43.43,0,0,1-.29.07c-1.58.5-3.24.86-4.9,1.22-3.74.86-7.56,1.44-11.09,2.23-1,3.67,3.6,1.8,5,.58a52.92,52.92,0,0,0,6-1.3c1.87-.43,3.74-.86,5.18-1.15a5.74,5.74,0,0,1,2.81,0v.72a23.79,23.79,0,0,1-2.81,2.16,18.42,18.42,0,0,0-4.18,3.46,3.78,3.78,0,0,1-1,.79c-1.3.72-3.1.86-3.82,2.81-.14.58.22,1.37-.14,1.87-3.1,1.8-13.1-1.94-13.1,2.3,2.16,2.52,6.84,3,6.84,7.63,3,4.54,5.9,5.47,10.22,6.48.65.14,1.3.29,2,.5a18.34,18.34,0,0,0,3.17-.29,13.14,13.14,0,0,0,3.31-.79,5.32,5.32,0,0,0,.94-.58c1.15-2.3,3.1-4.82,3.38-7.78v-1.3a11.48,11.48,0,0,0-.36-1.51,2.06,2.06,0,0,1,.36-1.22c1.73-2.23,9.65,1.51,13.1-.65h.94c.43-.65,0-.94.43-1.08C495.86,279.74,495.58,276.65,493.06,276.65Zm-18.5,1.15a2.21,2.21,0,0,1,1.3-.22c.72,0,1.37.29,1.37.94a1.91,1.91,0,0,1-1.37.22,1.22,1.22,0,0,0-.72,0l-.58-.22Zm4.61,9.36a10.3,10.3,0,0,1-3.31,3.53,7.93,7.93,0,0,1-4.46,1.73c0-.22-.36-.29-.72-.36a3.09,3.09,0,0,1-.36-.07c-2.45.72-8.71-4.68-8.71-6.84a29.39,29.39,0,0,1,9.07-2.66,43.45,43.45,0,0,1,5.18-.5c.94-.07,1.87-.07,2.81-.07a4,4,0,0,1,.5.65A4.27,4.27,0,0,1,479.16,287.16Z" transform="translate(-85.21 -233.58)" style="fill:#231815"/><path d="M427.54,282.41c0-2.16-1.87-3.6-3.67-4.61-4.9-2.66-10.94-6.62-14.47-11.16-1.44-1.51-5.26-3.31-6.19-5.26.36-1.51,3.17-1.58,4-2.38a13.73,13.73,0,0,0,5.9-3.82c-.43-2.81-4.46-2.66-6.55-2.66-1.08.65-3.46,1.3-4.61.79-.94-.29.14-7,1.15-7.63,3.46-1.66-8.42-5-8.42-.94,2.81,3.31-1,8.57,0,12.24-2.23,3.46-9.07,1.87-11,4.39,0,.86,2.38,4.32,3.17,4.68,8.42,0,1.8,5.4-.29,8.57-.65.94-.94.5-1.58.79,0,2.09-5.26,3.17-6.84,2.88-2.45,1.73.58,2.52.58,4.1.5.07,1,.79,1.3,1,4,0,8.28.79,11.52-1.94,1.87-3.17,5.18-5.69,6.48-8.93.36-1.22-.29-3.82,1.8-3.82l.72.65v.36a12.87,12.87,0,0,1,2.59,2.23c.79,3.6,5,5.69,5.76,9.22,1.22,1.08,5,4.61,7,3.17A41.9,41.9,0,0,1,426.74,287C428.4,287,429.62,282.77,427.54,282.41Z" transform="translate(-85.21 -233.58)" style="fill:#231815"/><path d="M344.88,261c-2.52,1.66-1.51,0-2.3,3-.72,1-4,1.51-5.62,1.73-1.51-1.87,2.52-8.14.86-12-1.51-1.22-11.38-6.19-13.39-4.25.65,1,.43,2,.43,3.17.07.86.86,1.51.94,2,1.8,4.25,0,8.86,0,13.61-1.44,2.52-4.82,1.66-7.49.86-2.09-1.37-4.75-8.64-7.49-8.14-2.23,5.11-2.66,15.41,2.88,18.65,1,.5,2,.14,3.1.5,3,0,11.66-3,14.26-4.75a3.94,3.94,0,0,1,2.66-1.15c1.51-.86,4.61-3.82,6.77-3.38,1.51,1.51-1.15,2.81-1.37,4,2.74,1.87,9.86,3.53,12,0,.94-3.1,5.26-6.12,4.68-9.5C354.24,261.82,347.83,261.31,344.88,261Z" transform="translate(-85.21 -233.58)" style="fill:#231815"/><path d="M292,245l-.79.29-.36.5.14.07-.43.36c-.58-.36-.65-.43-.94-.58l-.22-.86c-.58.22-7.2-.22-7.2.58a12.08,12.08,0,0,0-2.81,0c-2.74.14-5.83.29-5.83-3l-.22-.07c0-1.37-1-2.3-1-3.89-.29-.5-3.74-1.87-4.32-2.16-2.09-2.09-3.53-.58-2.81,2.09-1,2.88-.43,6.26-1.3,8.86-3.17,2.66-3.46,3.46-8.06,3.89A10.62,10.62,0,0,1,246.6,254a14.82,14.82,0,0,0-2.38-2.38c-2.38,1.3-.22,8.5-1.15,10.8,0,3-.58,6.26,1.15,8.64.07.14.72.65.72,1,4.68,0,3-10.66,2.59-13.18-.65-1.37,0-2.09.94-3,5.4,1.51,12-5.62,14.54-3.74.43,3.31.86,6.41-.43,9.36a12,12,0,0,0-.58,2.16c-2.45,1.08-7.78,2-8.93,4.54a5,5,0,0,0,2.16,1c1.44,0,5.11-1.22,6.34-.79,2.81,1.8,1.94,15.84.14,18.43-.07,1.58-.22,5.62,1.73,6.41,1.15-.36,2.81-.65,3.89-1.08,3,0,4.25-5,5-7,1.22-7.27-.29-16.06,2.23-22.9.79-1.44,2.74-1.3,4.82-1,1.73.14,3.46.36,4.61-.22,0-4.61,3.82-5.54,6.84-7.7C298.51,252,296.42,248.14,292,245Zm-12,8a4.67,4.67,0,0,1-.65.58c-.94,1-1.66,2.09-3.31,2.59-1.08,0-.86-.36-1.51-1,.36-2.38-.65-4.46-.22-6.91,1.15-1.08,3.24-1,5-1,1.3,0,2.52-.07,3.17-.72,1.51,0,1.44,1.58,2.09,1.73C284.62,250.66,281.81,252.24,280,253Z" transform="translate(-85.21 -233.58)" style="fill:#231815"/><path d="M209.74,275.57c-6.77-.5-6,1.3-6-5.33.79-2.3,2.45-5,2.3-7.78-.72-.43-1-.94-1.51-1.08-1.58-.36-2.59-.22-4-.5-2.09,1.44-.29,1.15,0,3.53A20,20,0,0,1,196,275.93c-1.15,1.73-5.83.72-6.62-.86-.65-1.08-1.08-13.54.36-14.18,2.38-1,5.33-1.8,7.13-3,2.59,0,5.11.22,7.27-.94.58,0,.58-.5,1.22-.5a92.7,92.7,0,0,0,10.08-.5,4.31,4.31,0,0,0,.58-2.23c-2.74-2.74-11.74.79-15.48-1a24.55,24.55,0,0,1-1.73-7.85c-1.66-3.38-8.78-4.39-12.6-4.39-2.59,2.59-.65,1.8.58,4.82.65.65,1.44.65,2.09,1,1.37,2.45,4.25,5,1.8,7.42-6,.79-10.8,3.53-16.78,3.89-1.58-.5-6.34-4.25-4.82,1.08,1.3,1.3,2.52,5.69,3.38,6,4.18,1.73,8.35-1.3,12.24-1.37.5.5,1,.72,1,1.3,0,1.66-1.66,11.38-2.74,12.46a9.77,9.77,0,0,1-4.9.79c-4.32,1.66-6.77-2.23-10.44-.65-1.3,2.59,2.88,5.18,3.82,6.84a13.86,13.86,0,0,0,1,1.08c0,1.8,1.94,1,3.24,1.3a23.67,23.67,0,0,0,4.54-.29c.65-1.3,10.15-2.59,12.74-4.18a31.92,31.92,0,0,1,18.22-1.15c5.54,0,10.37,4.32,10.37-3.24C220.25,274.78,212.18,275.42,209.74,275.57Z" transform="translate(-85.21 -233.58)" style="fill:#231815"/><path d="M140.62,241.73c-1.3-2.74-6.34-5-9.07-5.76-1.66-1.37-5.9-.94-8.14-.79-1.3.07-2.52.07-3.82.14-.65.07-1.3.07-1.94.14s-1,.07-1.51.07c-3.67.29-7.34.79-10.94,1.44q-3.67.65-7.13,1.51c-2.09.79-8.06-.36-8.06,2.59,1.22.5,2,2.16,3.46,2.66,3.31.43,6-.65,8.71-2.16.79,0,1.87-.29,3-.43s2.59-.22,3.31.43c3.31,3.6.36,4.75-3.31,5.26s-7.7.43-8.28,1.3c1.87,3.24,4,3.74,7.13,3.24l.07-.22a5.58,5.58,0,0,0,1.08-.14c2.23-.43,4.39-1.15,6.62-.94.5.22.5.65.94.79V252c-1.15.36-1.15,0-2,0a17.94,17.94,0,0,1-5.54,2.23c-.79.22-1.51.36-2.23.58-2.52.58-4.18-1.94-5.33,1.58.14,1.37-1.44,13,3.31,10.37.86-1.73,2.45-2.45,4.25-3,2.45-.65,5.33-.86,6.77-3l.5.36c-.43.72-.5,1.3-.86,1.87a39.69,39.69,0,0,1-6.41,4.68c-2.74,1.37-5.62,2.09-8.64.79-3.1-2.52-.5-18.58-3.46-19.3-1.87-1.37-5.18-3.46-7.49-3,0,1.58.86,3.31.86,4.9-1.44,5.54,0,11.23-1,16.42-.36,4.75-.65,9.94,1.44,14a5,5,0,0,0,3,.86c1.51,1.44,3,4.32,5.26,4.32a18.9,18.9,0,0,0,10,1.08l1.08-.22c2.66-2.45,6.34-2.23,9.86-2.59a10.7,10.7,0,0,0,1.51-.14,9.39,9.39,0,0,0,1.94-.43c.36-.07.65-.22.94-.29a17.22,17.22,0,0,1,4.9.43c.72,0,6,6.19,6,6.41,1,.29,2.59,1.66,3.53,2.09,5,0,6.55-4.75,6.7-10.22v-2.09a88.69,88.69,0,0,0-1.44-12C139.46,259.87,140.62,250.73,140.62,241.73ZM105.19,259.3a5.15,5.15,0,0,1-2.52,1c-1.3-.86-.58-1.58-.5-3a6.61,6.61,0,0,1,3-.79c.86-.07,1.58.14,1.87.79A5.4,5.4,0,0,1,105.19,259.3Zm9.07-20.74c.43-.07,1.08-.14,1.87-.22.43,0,.94-.07,1.51-.07s1.3-.07,1.94-.14a11.93,11.93,0,0,1,4.18.43c-.58.86-2.66-.07-3.82,1-.29,1.22.65,3.31-.36,4.25a2.19,2.19,0,0,1-1.58.43h-.36a9.27,9.27,0,0,1-1.51-.36,1.57,1.57,0,0,1-.36-.22C114.84,242.74,113.26,239.57,114.26,238.56Zm-2.45,42-.22.36c-2.09.36-4.25.86-6.41,1.3a23.51,23.51,0,0,1-7.13.65c-1.94-.5-3.89.29-5.69-1,0-1.51,2.81-4.1,4.18-4.39a15.07,15.07,0,0,0,8.64-3.1c4-2.81,7.63-6.91,10.94-10a2.83,2.83,0,0,1,.72-.58l.43.29.36.29.36.22a4.61,4.61,0,0,1-.36,2.3,5.14,5.14,0,0,1-1.51,1.66,4,4,0,0,0-.65.5c-1.94,3.38-5.54,6.41-9.5,7C103.1,280.32,111,278.74,111.82,280.61Zm13.1-1.73c-1.87.29-3.6.43-5.33.65l-1.94.22a11.2,11.2,0,0,0-1.51.29,8.39,8.39,0,0,0-1.3.29l-.58-.58c0-.72.86-1.66,1.87-2.66.5-.43,1-.94,1.51-1.37a10.54,10.54,0,0,0,1.94-2.16A6.62,6.62,0,0,0,120,273c.29-.5,1.15-.22,1.94-.14C123,274.42,125.42,276.72,124.92,278.88ZM132,274.2c-5.33-4.54-9.36-10.3-2.52-15.7,1.51-3.17,1.66-8.21-2.45-9.29-3.31,0-.79,7.2-5.54,7.2a19,19,0,0,1-1.94-3.17c-.72-1.51-1.44-3.24-1.94-4.54a4.46,4.46,0,0,1-.36-.86,1.26,1.26,0,0,1,.36-.29,4.09,4.09,0,0,1,1.94-.94c4.32-.94,9.94,2.66,8.93-6l.29-.94C133.34,237.91,136.73,273,132,274.2Z" transform="translate(-85.21 -233.58)" style="fill:#231815"/></svg>